<?xml version="1.0" encoding="UTF-8"?>
<svg id="Layer_1" data-name="Layer 1" xmlns="http://www.w3.org/2000/svg" version="1.1" viewBox="0 0 25.12 25.12">
  <defs>
    <style>
      .cls-1 {
        fill: #999;
        stroke-width: 0px;
      }
    </style>
  </defs>
  <path class="cls-1" d="M23.16,20.16l-1.66-2.77v-5.89c-.01-3.7-2.3-7-5.72-8.33-.02-.83-.35-1.6-.94-2.19C14.23.36,13.42.02,12.56.02h0c-1.74,0-3.17,1.4-3.21,3.13-3.43,1.33-5.71,4.64-5.73,8.34v5.89l-1.67,2.77c-.11.17-.16.37-.16.58,0,.61.5,1.11,1.11,1.11h5.99c.22,1.83,1.77,3.26,3.66,3.26s3.44-1.43,3.66-3.26h5.93s.04,0,.05,0c.2,0,.4-.05.57-.16.53-.32.7-1,.38-1.52ZM12.56,24.1c-1.33,0-2.43-.96-2.66-2.26h5.33c-.21,1.28-1.33,2.26-2.67,2.26ZM22.22,20.84H2.91c-.06,0-.11-.05-.1-.17l1.74-2.89c.05-.08.07-.17.07-.26v-6.03c.01-3.4,2.18-6.42,5.39-7.52.2-.07.34-.26.34-.47v-.26c0-1.22.99-2.22,2.22-2.22h0c.59,0,1.15.23,1.57.65s.65.98.65,1.57v.27c0,.21.14.4.34.47,3.21,1.1,5.37,4.13,5.38,7.51v6.03c0,.09.02.18.07.26l1.74,2.89s0,.12-.09.17Z"/>
</svg>
