<?xml version="1.0" encoding="UTF-8"?>
<svg id="Layer_1" data-name="Layer 1" xmlns="http://www.w3.org/2000/svg" version="1.1" viewBox="0 0 25.12 25.12">
  <defs>
    <style>
      .cls-1 {
        fill: #ddd;
        stroke-width: 0px;
      }
    </style>
  </defs>
  <g id="_그룹_1070" data-name="그룹 1070">
    <g id="_패스_72" data-name="패스 72">
      <path class="cls-1" d="M12.56,25.12C5.64,25.12,0,19.49,0,12.56S5.64,0,12.56,0c6.93,0,12.56,5.64,12.56,12.56s-5.64,12.56-12.56,12.56ZM12.56,1C6.19,1,1,6.19,1,12.56s5.19,11.56,11.56,11.56,11.56-5.19,11.56-11.56S18.94,1,12.56,1Z"/>
    </g>
    <g id="_패스_73" data-name="패스 73">
      <path class="cls-1" d="M15.39,17.25l-4.17-4.47h1.43c1.58,0,2.87-1.28,2.87-2.87s-1.28-2.87-2.87-2.87h-2.55c-.27,0-.48.22-.49.49v10.05c0,.27.22.49.49.49.27,0,.49-.21.49-.48,0,0,0,0,0-.01v-4.05l4.09,4.38c.09.1.22.16.36.16.27,0,.49-.21.49-.48,0-.13-.05-.25-.14-.35M10.58,8.02h2.06c1.04,0,1.89.85,1.89,1.89s-.85,1.89-1.89,1.89h-2.06v-3.78Z"/>
    </g>
  </g>
</svg>
