<?xml version="1.0" encoding="UTF-8"?>
<svg id="Layer_1" data-name="Layer 1" xmlns="http://www.w3.org/2000/svg" version="1.1" viewBox="0 0 25.12 25.12">
  <defs>
    <style>
      .cls-1 {
        fill: #999;
        stroke-width: 0px;
      }
    </style>
  </defs>
  <g id="_그룹_1075" data-name="그룹 1075">
    <g id="_패스_77" data-name="패스 77">
      <path class="cls-1" d="M12.56,25.12C5.64,25.12,0,19.49,0,12.56S5.64,0,12.56,0c6.93,0,12.56,5.64,12.56,12.56s-5.64,12.56-12.56,12.56ZM12.56,1C6.19,1,1,6.19,1,12.56s5.19,11.56,11.56,11.56,11.56-5.19,11.56-11.56S18.94,1,12.56,1Z"/>
    </g>
    <g id="_패스_78" data-name="패스 78">
      <path class="cls-1" d="M12.56,17.92c-.26,0-.47-.21-.47-.47h0v-7.49c0-.26.21-.47.47-.47s.47.21.47.47v7.49c0,.26-.21.47-.47.47h0"/>
    </g>
    <g id="_패스_79" data-name="패스 79">
      <path class="cls-1" d="M12.56,8.17c.27-.04.47-.29.43-.56-.03-.22-.21-.4-.43-.43-.27.04-.47.29-.43.56.03.22.21.4.43.43"/>
    </g>
  </g>
</svg>
