<?xml version="1.0" encoding="UTF-8"?>
<svg id="Layer_1" data-name="Layer 1" xmlns="http://www.w3.org/2000/svg" version="1.1" viewBox="0 0 120 122">
  <defs>
    <style>
      .cls-1 {
        fill: #ddd;
        stroke-width: 0px;
      }
    </style>
  </defs>
  <path id="_패스_75" data-name="패스 75" class="cls-1" d="M89.5182,11.4067v-6.589c0-2.6607-2.1604-4.8177-4.8254-4.8177s-4.8254,2.157-4.8254,4.8177v6.589h-39.7655v-6.589c0-2.6607-2.1604-4.8177-4.8254-4.8177s-4.8254,2.157-4.8254,4.8177v6.589H0v110.5933h120V11.4067h-30.4818ZM110.3569,112.0745H9.6508v-58.2857h100.7061v58.2857ZM9.6508,43.825v-22.4546h20.831v5.6346c0,2.6607,2.1604,4.8177,4.8254,4.8177s4.8254-2.157,4.8254-4.8177v-5.6346h39.7655v5.6346c0,2.6607,2.1604,4.8177,4.8254,4.8177s4.8254-2.157,4.8254-4.8177v-5.6346h20.831v22.4546H9.6508Z"/>
</svg>