<?xml version="1.0" encoding="UTF-8"?>
<svg id="Layer_1" data-name="Layer 1" xmlns="http://www.w3.org/2000/svg" version="1.1" viewBox="0 0 120 108">
  <defs>
    <style>
      .cls-1 {
        fill: #fff;
        stroke-width: 0px;
      }
    </style>
  </defs>
  <path id="_패스_13" data-name="패스 13" class="cls-1" d="M60.0012,86.9968c14.8466.0637,26.9337-11.9201,26.9974-26.7666.0003-.0769.0003-.1537,0-.2306.0623-14.8493-11.9251-26.9375-26.7745-26.9997-.0743-.0003-.1486-.0003-.2229,0-14.8522-.0594-26.9405,11.9324-26.9999,26.7845-.0003.0717-.0003.1435,0,.2152-.0608,14.8493,11.9276,26.9363,26.777,26.9972.0743.0003.1486.0003.2229,0M60.0012,74.9989c-8.203.0837-14.9207-6.4983-15.0044-14.7012-.001-.0993-.001-.1987,0-.298-.0852-8.2015,6.4945-14.9192,14.6961-15.0044.1028-.0011.2056-.0011.3084,0,8.203-.0809,14.9185,6.5034,14.9994,14.7064.001.0976.001.1953,0,.2929.078,8.2058-6.5109,14.9212-14.7168,14.9993-.0942.0009-.1884.0009-.2826,0M12.0017,107.9989c-3.1905.0447-6.2576-1.2311-8.475-3.5255C1.2323,102.256-.0436,99.1889.0012,95.9984V24.0009c-.045-3.1905,1.2309-6.2577,3.5255-8.475,2.2174-2.2944,5.2845-3.5702,8.475-3.5255h18.9007L42.0004,0h35.999l11.1006,12.0004h18.9007c3.1897-.0446,6.256,1.2313,8.4725,3.5255,2.2957,2.2165,3.5718,5.2842,3.5255,8.475v71.9975c-.0182,6.6191-5.3788,11.9808-11.998,12.0004H12.0017ZM12.0017,95.9984h95.9991V24.0009h-24.2874l-10.9626-12.0004h-25.4992l-10.9472,12.0004H12.017l-.0153,71.9975Z"/>
</svg>