<?xml version="1.0" encoding="UTF-8"?>
<svg id="Layer_1" data-name="Layer 1" xmlns="http://www.w3.org/2000/svg" version="1.1" viewBox="0 0 200 200">
  <defs>
    <style>
      .cls-1 {
        fill: #de5000;
      }

      .cls-1, .cls-2 {
        stroke-width: 0px;
      }

      .cls-2 {
        fill: #fff;
      }
    </style>
  </defs>
  <circle class="cls-1" cx="100" cy="100" r="100"/>
  <g>
    <path id="_패스_86" data-name=" 패스 86" class="cls-2" d="M121.3815,123.1717l9.089-2.8173-7.9708-7.9569-2.8222,9.0733c-.2233.7165.1775,1.478.8952,1.7009.2634.0818.5454.0818.8086,0"/>
    <path id="_패스_87" data-name=" 패스 87" class="cls-2" d="M157.2023,77.9919l-4.8426,4.8394,7.9655,7.9569,4.8426-4.8368c1.6178-2.2108,1.1961-5.3026-.9548-7.0011-1.7015-2.1472-4.7988-2.5681-7.0133-.9531"/>
    <path id="_패스_88" data-name=" 패스 88" class="cls-2" d="M117.1403,64.3398c.0087,3.2726,2.6642,5.9235,5.9424,5.9322h16.6774l-22.6198-22.5807v16.6485Z"/>
    <path id="_패스_89" data-name=" 패스 89" class="cls-2" d="M117.0981,114.6697c.3492-1.8697,1.05-3.6566,2.0652-5.266,1.2845-1.5166,2.7905-2.8199,4.1911-4.2128,2.0046-1.9976,4.0073-3.9969,6.0084-5.998,2.664-2.6593,5.3296-5.3205,7.9972-7.9833l2.4028-2.3987v-13.2967h-18.9563c-4.9118-.0145-8.8899-3.9858-8.9045-8.889v-18.934h-45.1183c-3.6118.0086-6.5377,2.9295-6.5464,6.5351v91.9631c.0116,3.6041,2.9362,6.5224,6.5464,6.5325h66.4299c3.6113-.0101,6.5364-2.9301,6.5464-6.5351v-28.2759c-1.4084,1.5834-2.9843,3.01-4.7002,4.255-1.6717.9954-3.4291,1.8396-5.2514,2.5224-2.5664,1.0927-5.1802,2.08-7.7492,3.1596-.544.1701-1.1101.2588-1.6801.2633-3.1173-.0062-5.6394-2.5339-5.6333-5.6458.0011-.5613.0862-1.1193.2526-1.6555.641-2.0642,1.4058-4.0943,2.1101-6.1375M107.2705,121.2549h-36.4698c-1.4195,0-2.5703-1.1488-2.5703-2.5658s1.1507-2.5658,2.5703-2.5658h36.4592c1.4195,0,2.5703,1.1488,2.5703,2.5658s-1.1507,2.5658-2.5703,2.5658M107.26,108.8798h-36.4593c-1.4203,0-2.5717-1.1493-2.5717-2.5672s1.1514-2.5672,2.5717-2.5672h36.4592c1.4203,0,2.5717,1.1493,2.5717,2.5672s-1.1514,2.5672-2.5717,2.5672M107.26,96.4888h-36.4593c-1.4203,0-2.5717-1.1493-2.5717-2.5672s1.1514-2.5672,2.5717-2.5672h36.4592c1.4203,0,2.5717,1.1493,2.5717,2.5672s-1.1514,2.5672-2.5717,2.5672M70.8007,84.0768c-1.4203-.0007-2.571-1.1507-2.5703-2.5685.0007-1.4168,1.1511-2.5651,2.5703-2.5658h46.3449c1.4203.0007,2.571,1.1507,2.5703,2.5685-.0007,1.4168-1.1511,2.5651-2.5703,2.5658h-46.3449Z"/>
    <polygon id="_사각형_744" data-name=" 사각형 744" class="cls-2" points="124.85 110.2858 150.664 84.5164 158.6316 92.4701 132.8174 118.2395 124.85 110.2858"/>
  </g>
</svg>