<?xml version="1.0" encoding="UTF-8"?>
<svg id="Layer_1" data-name="Layer 1" xmlns="http://www.w3.org/2000/svg" version="1.1" viewBox="0 0 200 200">
  <defs>
    <style>
      .cls-1 {
        fill: #de5000;
      }

      .cls-1, .cls-2 {
        stroke-width: 0px;
      }

      .cls-2 {
        fill: #fff;
      }
    </style>
  </defs>
  <circle class="cls-1" cx="100" cy="100" r="100"/>
  <g id="_그룹_1655" data-name=" 그룹 1655">
    <path id="_패스_96" data-name=" 패스 96" class="cls-2" d="M144.2961,54.0763H55.7012c-5.0769.0158-9.1888,4.1344-9.2045,9.2198v11.8986h107.0067v-11.8986c-.0158-5.0864-4.1292-9.2054-9.2072-9.2198M60.9008,68.4336c-2.0935,0-3.7905-1.6999-3.7905-3.7969s1.6971-3.7969,3.7905-3.7969,3.7905,1.6999,3.7905,3.7969h0c-.0014,2.0964-1.6977,3.7954-3.7905,3.7969M74.2619,68.4336c-2.0935,0-3.7905-1.6999-3.7906-3.7969,0-2.097,1.6971-3.7969,3.7905-3.7969s3.7906,1.6999,3.7906,3.7969h0c0,2.097-1.6971,3.7969-3.7905,3.7969M87.6257,68.4336c-2.0935,0-3.7905-1.6999-3.7905-3.7969s1.6971-3.7969,3.7906-3.7969,3.7905,1.6999,3.7905,3.7969c-.0014,2.0964-1.6977,3.7954-3.7905,3.7969"/>
    <path id="_패스_97" data-name=" 패스 97" class="cls-2" d="M46.4967,145.9237h107.0067v-66.3875H46.4967v66.3875ZM114.9022,134.7714h-51.4133c-.8475-.0005-1.534-.6892-1.5335-1.5381.0005-.8481.6868-1.5355,1.5335-1.5361h51.4133c.8475.0005,1.534.6892,1.5335,1.5381-.0005.8481-.6868,1.5355-1.5335,1.5361M136.498,121.1027H63.4889c-.8468.035-1.5616-.6242-1.5965-1.4723-.035-.8482.6231-1.5642,1.4699-1.5992.0422-.0018.0844-.0018.1266,0h73.0092c.8468-.035,1.5616.6242,1.5965,1.4723.035.8482-.6231,1.5642-1.4699,1.5992-.0422.0018-.0844.0018-.1266,0M136.498,107.434H63.4889c-.8475-.0005-1.534-.6892-1.5335-1.5381.0005-.8481.6868-1.5355,1.5335-1.5361h73.0092c.8475.0005,1.5341.6892,1.5335,1.5381-.0005.8481-.6868,1.5355-1.5335,1.5361M136.498,93.7653H63.4889c-.8468-.035-1.5049-.751-1.4699-1.5992.0329-.7991.6722-1.4393,1.4699-1.4723h73.0092c.8468-.035,1.5616.6242,1.5965,1.4723.035.8482-.6231,1.5642-1.4699,1.5992-.0422.0018-.0844.0018-.1266,0"/>
  </g>
</svg>