<?xml version="1.0" encoding="UTF-8"?>
<svg id="Layer_1" data-name="Layer 1" xmlns="http://www.w3.org/2000/svg" version="1.1" viewBox="0 0 25.12 25.12">
  <defs>
    <style>
      .cls-1 {
        fill: #999;
        stroke-width: 0px;
      }
    </style>
  </defs>
  <g id="_그룹_1074" data-name="그룹 1074">
    <g id="_패스_76" data-name="패스 76">
      <path class="cls-1" d="M21.66,25.12h-4.25c-.76,0-1.38-.62-1.38-1.38v-7.3c0-.2-.16-.36-.36-.36h-6.17c-.2,0-.36.16-.36.36v7.29c0,.76-.62,1.38-1.38,1.38H3.52c-.76,0-1.39-.62-1.39-1.39v-10.06h-.37c-.27-.02-.5-.1-.69-.28-.19-.18-.3-.43-.31-.7s.09-.52.28-.71L11.82.33c.48-.44,1.13-.42,1.52,0l10.74,11.61c.18.19.28.44.28.7,0,.27-.11.53-.3.73s-.46.3-.73.3h-.29v10.08c0,.76-.62,1.38-1.38,1.38ZM9.5,15.08h6.17c.75,0,1.36.61,1.36,1.36v7.3c0,.21.17.38.38.38h4.25c.21,0,.38-.17.38-.38v-11.08h1.29,0s.02-.06.02-.06L12.61,1.01,1.76,12.66h1.37v11.07c0,.21.17.39.39.39h4.24c.21,0,.38-.17.38-.38v-7.29c0-.75.61-1.36,1.36-1.36Z"/>
    </g>
  </g>
</svg>
