<?xml version="1.0" encoding="UTF-8"?>
<svg id="Layer_1" data-name="Layer 1" xmlns="http://www.w3.org/2000/svg" version="1.1" viewBox="0 0 120 120">
  <defs>
    <style>
      .cls-1 {
        fill: #ddd;
        stroke-width: 0px;
      }
    </style>
  </defs>
  <g id="_패스_77" data-name=" 패스 77">
    <path class="cls-1" d="M60.0023,120C26.918,120,0,93.0843,0,60S26.918,0,60.0023,0c33.0843.0023,59.9977,26.918,59.9977,60s-26.9134,60-59.9977,60ZM60.007,4.7763C29.5534,4.7763,4.7763,29.5487,4.7763,60s24.7724,55.2237,55.226,55.2237,55.2214-24.7724,55.2214-55.2237S90.4513,4.7786,60.007,4.7763Z"/>
  </g>
  <path id="_패스_78" data-name=" 패스 78" class="cls-1" d="M60.0053,85.5816c-1.2451,0-2.2544-1.0093-2.2544-2.2544h0v-35.7841c0-1.2451,1.0093-2.2544,2.2544-2.2544s2.2544,1.0093,2.2544,2.2544v35.7841c0,1.2451-1.0093,2.2544-2.2544,2.2544h0"/>
  <path id="_패스_79" data-name=" 패스 79" class="cls-1" d="M60.0006,39.0412c1.3071-.1766,2.2235-1.3793,2.047-2.6863-.1439-1.0652-.9817-1.9031-2.047-2.047-1.3071.1766-2.2235,1.3793-2.047,2.6863.1439,1.0652.9817,1.9031,2.047,2.047"/>
</svg>