<?xml version="1.0" encoding="UTF-8"?>
<svg id="Layer_1" data-name="Layer 1" xmlns="http://www.w3.org/2000/svg" version="1.1" viewBox="0 0 160 170">
  <defs>
    <style>
      .cls-1 {
        fill: #ddd;
        stroke-width: 0px;
      }
    </style>
  </defs>
  <g id="_패스_76" data-name=" 패스 76">
    <path class="cls-1" d="M141.6838,170h-28.8279c-5.1566,0-9.3533-4.1868-9.3533-9.3353v-49.4028c0-1.3383-1.0922-2.4288-2.436-2.4288h-41.8484c-1.3371,0-2.4294,1.0938-2.4294,2.4354v49.3499c0,5.1551-4.2034,9.3518-9.3732,9.3518h-28.722c-5.1831,0-9.3997-4.2067-9.3997-9.3783v-68.0965h-2.5353c-1.7343,0-3.3958-.6642-4.6601-1.8704-2.7074-2.5676-2.8067-6.8602-.2317-9.5666L74.9925,2.1892c3.2105-2.9972,7.6654-2.8386,10.2933-.0033l72.8409,78.5421c1.2047,1.2987,1.8733,2.9906,1.8733,4.7651.0066,1.8571-.7149,3.6152-2.0388,4.9403s-3.0847,2.0587-4.958,2.062h-1.9925v68.1857c0,2.4916-.9731,4.8345-2.7338,6.5958-1.7608,1.7547-4.1041,2.7229-6.593,2.7229v.0002ZM59.2116,102.0654h41.855c5.0838,0,9.2143,4.1241,9.2143,9.1965v49.4028c0,1.4143,1.1584,2.5676,2.575,2.5676h28.8213c.6884,0,1.3305-.2644,1.8071-.7468.4832-.4792.748-1.1136.748-1.7911v-74.9666h8.7642l.1655-.3899L80.3145,6.7891,6.8051,85.6915l9.2673.0363v74.8642c0,1.4408,1.1783,2.6106,2.6213,2.6106h28.722c1.4298,0,2.5948-1.1599,2.5948-2.5841v-49.3499c0-5.0692,4.1306-9.1965,9.2011-9.2031h0Z"/>
  </g>
</svg>