<?xml version="1.0" encoding="UTF-8"?>
<svg id="Layer_1" data-name="Layer 1" xmlns="http://www.w3.org/2000/svg" version="1.1" viewBox="0 0 200 55">
  <defs>
    <style>
      .cls-1 {
        fill: #ddd;
        stroke-width: 0px;
      }
    </style>
  </defs>
  <g id="_타원_91" data-name=" 타원 91">
    <path class="cls-1" d="M27.5876,55C12.3731,55,0,42.6621,0,27.5S12.3731,0,27.5876,0s27.5876,12.3379,27.5876,27.5-12.3731,27.5-27.5876,27.5ZM27.5876,8.3586c-10.5879,0-19.2024,8.5871-19.2024,19.1414s8.6145,19.1414,19.2024,19.1414,19.2024-8.5871,19.2024-19.1414-8.6145-19.1414-19.2024-19.1414Z"/>
  </g>
  <g id="_타원_92" data-name=" 타원 92">
    <path class="cls-1" d="M100,55c-15.2145,0-27.5876-12.3379-27.5876-27.5S84.7855,0,100,0s27.5876,12.3379,27.5876,27.5-12.3731,27.5-27.5876,27.5ZM100,8.3586c-10.5879,0-19.2024,8.5871-19.2024,19.1414s8.6145,19.1414,19.2024,19.1414,19.2024-8.5871,19.2024-19.1414-8.6145-19.1414-19.2024-19.1414Z"/>
  </g>
  <g id="_타원_93" data-name=" 타원 93">
    <path class="cls-1" d="M172.4124,55c-15.2145,0-27.5876-12.3379-27.5876-27.5S157.1978,0,172.4124,0s27.5876,12.3379,27.5876,27.5-12.3731,27.5-27.5876,27.5ZM172.4124,8.3586c-10.5879,0-19.2024,8.5871-19.2024,19.1414s8.6145,19.1414,19.2024,19.1414,19.2024-8.5871,19.2024-19.1414-8.6145-19.1414-19.2024-19.1414h0Z"/>
  </g>
</svg>