<?xml version="1.0" encoding="UTF-8"?>
<svg id="Layer_1" data-name="Layer 1" xmlns="http://www.w3.org/2000/svg" version="1.1" viewBox="0 0 120 120">
  <defs>
    <style>
      .cls-1 {
        fill: #ddd;
        stroke-width: 0px;
      }
    </style>
  </defs>
  <g id="_패스_86" data-name="패스 86">
    <path class="cls-1" d="M60.0023,120C26.9167,120,0,93.0843,0,60.0047c-.0047-16.025,6.2388-31.0949,17.5702-42.4282S43.9651,0,59.993,0c33.0856,0,60.0023,26.9157,60.007,59.9953h0c0,16.0273-6.2388,31.0902-17.5702,42.4258-11.3314,11.3356-26.3995,17.5742-42.4275,17.5788ZM60.0023,4.7709c-14.756,0-28.6267,5.747-39.0588,16.1788C10.5114,31.3814,4.7711,45.2516,4.7711,60.0047c0,30.4519,24.7781,55.2244,55.2312,55.2244,14.7513,0,28.622-5.7493,39.0542-16.1811,10.4321-10.4317,16.1724-24.3019,16.1724-39.0526h0c0-30.4519-24.7734-55.2244-55.2266-55.2244Z"/>
  </g>
  <path id="_패스_87" data-name="패스 87" class="cls-1" d="M59.2554,39.9417c-.9708-.2131-1.956.2935-2.3474,1.207l-13.7981,31.6265-13.7981-31.6217c-.3881-.9142-1.3729-1.4216-2.3426-1.207-.97.2013-1.6654,1.056-1.6651,2.0467v36.0205c0,1.1554.9367,2.092,2.0921,2.092s2.0921-.9366,2.0921-2.092v-25.9968l11.7083,26.8317c0,.0334.0525.0525.0716.0859.1435.2812.351.5247.6059.7109.0811.0572.1479.1145.229.1622s.105.0906.1718.1193c.2634.115.5475.1751.8349.1765h0c.2858-.002.5683-.062.8302-.1765.0614-.0375.1204-.079.1765-.124.0772-.0447.1507-.0958.2195-.1527.2592-.1882.4701-.435.6155-.7204,0-.0334.0525-.0477.0716-.0811l11.7035-26.8317v25.992c0,1.1554.9367,2.092,2.0921,2.092s2.0921-.9366,2.0921-2.092v-36.0205c.0003-.9907-.6951-1.8454-1.6651-2.0467"/>
  <path id="_패스_88" data-name="패스 88" class="cls-1" d="M93.784,40.2567c-.9559-.6436-2.2521-.3941-2.9008.5582l-10.4631,15.453-10.463-15.4483c-.6469-.9565-1.9467-1.2075-2.9032-.5606-.9565.6469-1.2075,1.9466-.5606,2.9031h0l11.8324,17.4807v17.3662c0,1.1554.9367,2.0921,2.0921,2.0921s2.0921-.9366,2.0921-2.0921v-17.3662l11.8324-17.4807c.6464-.9553.3965-2.2536-.5582-2.9007"/>
</svg>