<?xml version="1.0" encoding="UTF-8"?>
<svg id="Layer_1" data-name="Layer 1" xmlns="http://www.w3.org/2000/svg" version="1.1" viewBox="0 0 103 120">
  <defs>
    <style>
      .cls-1 {
        fill: #ddd;
        stroke-width: 0px;
      }
    </style>
  </defs>
  <path class="cls-1" d="M102.2472,96.3453l-7.9683-13.2666v-28.2038c-.0608-17.6873-10.9921-33.503-27.3728-39.884C66.6958,6.6893,59.8725,0,51.5209,0c-8.3516.0023-15.1702,6.687-15.3852,14.9839-16.404,6.3646-27.3494,22.1873-27.4055,39.905v28.1898l-7.9683,13.2432C.2618,97.149,0,98.1023,0,99.0743c0,2.93,2.3882,5.3179,5.3231,5.3179h28.672c1.0653,8.7692,8.4722,15.6078,17.5257,15.6078s16.4563-6.8386,17.521-15.6078h28.3823c.0888.0093.1729.014.2617.014.9581,0,1.9021-.2617,2.7293-.757,2.5144-1.5047,3.3369-4.7805,1.832-7.3039ZM51.5208,115.2149c-6.3513,0-11.6511-4.5935-12.7494-10.8226h25.5267c-1.0188,6.131-6.3607,10.8226-12.7774,10.8226h.0001ZM97.7186,99.6071H5.3231c-.2944,0-.5375-.2383-.458-.8178l8.3095-13.8134c.2243-.3738.3412-.7991.3412-1.2337v-28.8464c.0514-16.2456,10.4126-30.7039,25.7838-35.9727.9674-.3318,1.617-1.2407,1.617-2.2641v-1.2687c0-5.8459,4.7576-10.603,10.6042-10.6053,5.8466,0,10.6042,4.7571,10.6042,10.6053v1.2734c0,1.021.6496,1.9299,1.6124,2.2617,15.3478,5.2851,25.6997,19.7387,25.7557,35.9586v28.858c0,.4346.1168.8598.3412,1.2337l8.3048,13.832c.1542.2523.0794.5701-.4206.7991v.0003Z"/>
</svg>