<?xml version="1.0" encoding="UTF-8"?>
<svg id="Layer_1" data-name="Layer 1" xmlns="http://www.w3.org/2000/svg" version="1.1" viewBox="0 0 160 160">
  <defs>
    <style>
      .cls-1 {
        fill: #ddd;
        stroke-width: 0px;
      }
    </style>
  </defs>
  <path id="_패스_83" data-name="패스 83" class="cls-1" d="M146.9084,13.0993c-3.8594-3.9472-8.5397-6.9972-13.7092-8.934-6.1528-2.298-12.6506-3.5364-19.2172-3.6626-8.6894-.4094-11.5907-.5027-33.9749-.5027s-25.1131.0862-33.9749.5027c-6.5667.1262-13.0645,1.3646-19.2172,3.6626-5.1698,1.9402-9.8517,4.9897-13.7163,8.934-3.9447,3.8657-6.9962,8.5474-8.9408,13.717-2.2877,6.1556-3.5234,12.6524-3.6553,19.2181-.4093,8.8334-.5027,11.7635-.5027,33.9692s.0934,25.1358.5027,33.9836c.1325,6.5633,1.3682,13.0576,3.6553,19.2109,1.9461,5.1709,4.9974,9.8546,8.9408,13.7241,3.8678,3.9369,8.5491,6.9811,13.7163,8.9196,6.1544,2.2913,12.6514,3.5271,19.2172,3.6555,8.8402.4093,11.7702.5027,33.9749.5027s25.1346-.0934,33.9749-.5027c6.5658-.1283,13.0628-1.3642,19.2172-3.6555,10.3911-4.0326,18.6064-12.2509,22.6355-22.6437,2.2973-6.1508,3.5356-12.6463,3.6625-19.2109.4165-8.8693.5027-11.4906.5027-33.9836s-.0934-25.2866-.5027-33.962c-.1255-6.5694-1.3639-13.0699-3.6625-19.2253-1.9338-5.1732-4.984-9.8566-8.9336-13.717M150.0036,113.5491c-.0733,5.5368-1.0984,11.0197-3.0305,16.209-3.0476,7.9253-9.3102,14.1883-17.2352,17.236-5.1879,1.9272-10.6674,2.9522-16.2011,3.0307-8.8043.395-11.4327.4812-33.544.4812s-24.7469-.0862-33.5368-.4812c-5.536-.0787-11.0178-1.1037-16.2083-3.0307-3.9364-1.4685-7.5013-3.7855-10.4417-6.7867-3.0134-2.9303-5.3323-6.4983-6.7864-10.4421-1.9327-5.1916-2.9578-10.677-3.0305-16.2162-.4022-8.7544-.4811-11.3829-.4811-33.5383s.079-24.7767.4811-33.5383c.0733-5.5368,1.0984-11.0198,3.0305-16.209,1.461-3.9459,3.7844-7.5158,6.8007-10.4493,2.9403-3.0011,6.5052-5.3182,10.4416-6.7867,5.1881-1.9263,10.6675-2.9513,16.2011-3.0307,8.7612-.4022,11.3896-.4812,33.544-.4812s24.7756.079,33.544.4812c5.5337.0785,11.0132,1.1035,16.2011,3.0307,3.9411,1.455,7.5064,3.774,10.4345,6.7867,3.0149,2.9305,5.3361,6.4983,6.7935,10.4421,1.9327,5.1916,2.9578,10.677,3.0305,16.2162.4022,8.7544.4811,11.3829.4811,33.5311s-.079,24.7839-.4811,33.5455"/>
  <path id="_패스_84" data-name="패스 84" class="cls-1" d="M80.0072,40.2172c-21.9684-.004-39.7806,17.8026-39.7846,39.772-.004,21.9694,17.8018,39.7824,39.7702,39.7863,21.9684.004,39.7806-17.8026,39.7846-39.772v-.0143c-.0238-21.9556-17.8156-39.7482-39.7702-39.772M80.0072,110.2527c-16.7133.004-30.2653-13.5422-30.2693-30.2563-.004-16.7141,13.5416-30.2667,30.2549-30.2707,16.7133-.004,30.2653,13.5422,30.2693,30.2563v.0072c-.0237,16.7014-13.5543,30.2358-30.2549,30.2635"/>
  <path id="_패스_85" data-name="패스 85" class="cls-1" d="M124.1436,28.6261c-3.9939,0-7.2316,3.2378-7.2316,7.2319s3.2377,7.2319,7.2316,7.2319,7.2316-3.2378,7.2316-7.2319c-.004-3.9924-3.2393-7.228-7.2316-7.2319"/>
</svg>