<?xml version="1.0" encoding="UTF-8"?>
<svg id="Layer_1" data-name="Layer 1" xmlns="http://www.w3.org/2000/svg" version="1.1" viewBox="0 0 45.68 45.79">
  <defs>
    <style>
      .cls-1 {
        fill: #de5000;
        stroke-width: 0px;
      }
    </style>
  </defs>
  <g id="_그룹_1317-2" data-name="그룹 1317-2">
    <path id="_패스_17" data-name="패스 17" class="cls-1" d="M22.84.19C10.3.19.14,10.36.14,22.9s10.16,22.7,22.7,22.7,22.7-10.16,22.7-22.7h0C45.54,10.36,35.38.19,22.84.19M22.84,34.98c-.92,0-1.66-.75-1.66-1.67,0-.92.75-1.66,1.67-1.66.92,0,1.66.75,1.66,1.66,0,.92-.74,1.66-1.66,1.66h0M25.64,13.78v.1s-.02.06-.03.1l-2.19,16.07h-1.17l-2.19-16.07s-.01-.07-.01-.1v-.1s-.01-.04-.01-.06v-.11c0-1.55,1.25-2.8,2.8-2.8s2.8,1.25,2.8,2.8v.17"/>
  </g>
</svg>