<?xml version="1.0" encoding="UTF-8"?>
<svg id="Layer_1" data-name="Layer 1" xmlns="http://www.w3.org/2000/svg" version="1.1" viewBox="0 0 83.6617 99.9938">
  <defs>
    <style>
      .cls-1 {
        fill: #de5000;
        stroke-width: 0px;
      }
    </style>
  </defs>
  <g id="_그룹_2089" data-name=" 그룹 2089">
    <g id="_구성_요소_92_75" data-name=" 구성 요소 92 75">
      <path id="_패스_108" data-name=" 패스 108" class="cls-1" d="M33.5117,49.9469l44.1,48.9c.2.2.3.3.4.4,1.4,1.1,3.4,1,4.6-.4,1.4-1.5,1.4-3.8,0-5.4l-39.2-43.4L82.6117,6.6469c1.3-1.6,1.3-3.9,0-5.4-.2-.2-.3-.3-.4-.4-1.3-1.2-3.4-1-4.5.3l-44.1,48.9"/>
    </g>
  </g>
  <g id="_그룹_2089-2" data-name=" 그룹 2089-2">
    <g id="_구성_요소_92_75-2" data-name=" 구성 요소 92 75-2">
      <path id="_패스_108-2" data-name=" 패스 108-2" class="cls-1" d="M0,49.8469l44.1,48.9c.2.2.3.3.4.4,1.4,1.1,3.4,1,4.6-.4,1.4-1.5,1.4-3.8,0-5.4L9.9,49.9469,49.1,6.5469c1.4-1.5,1.4-3.8,0-5.4-.2-.2-.3-.3-.4-.4-1.4-1.1-3.4-1-4.6.4L0,50.0469"/>
    </g>
  </g>
</svg>