<?xml version="1.0" encoding="UTF-8"?>
<svg id="Layer_1" data-name="Layer 1" xmlns="http://www.w3.org/2000/svg" version="1.1" viewBox="0 0 306.7297 306.7297">
  <defs>
    <style>
      .cls-1 {
        fill: #ddd;
      }

      .cls-1, .cls-2 {
        stroke-width: 0px;
      }

      .cls-2 {
        fill: #fff;
      }
    </style>
  </defs>
  <circle class="cls-1" cx="153.3648" cy="153.3648" r="153.3648"/>
  <g id="_그룹_1651" data-name=" 그룹 1651">
    <path id="_패스_90" data-name=" 패스 90" class="cls-2" d="M179.4593,98.7219c.0132,4.9818,4.0475,9.019,9.0325,9.0389h25.373l-34.4055-34.3959v25.357Z"/>
    <path id="_패스_91" data-name=" 패스 91" class="cls-2" d="M185.0348,115.731c-7.4756-.0199-13.5309-6.0713-13.5507-13.5422v-28.824h-68.6582c-5.4941.0176-9.9434,4.4642-9.9611,9.9548v140.0904c.0177,5.4906,4.467,9.9372,9.9611,9.9548h101.0899c5.4887-.0243,9.9296-4.4696,9.945-9.9548v-107.663l-28.826-.0161h0ZM143.253,189.6891l-27.5758-27.9843,9.8686-10.003,17.6871,17.9813,37.975-38.606,9.8445,10.007-47.7994,48.605h0Z"/>
  </g>
</svg>