<?xml version="1.0" encoding="UTF-8"?>
<svg id="Layer_1" data-name="Layer 1" xmlns="http://www.w3.org/2000/svg" version="1.1" viewBox="0 0 98.36 138.08">
  <defs>
    <style>
      .cls-1 {
        fill: #333;
      }

      .cls-1, .cls-2, .cls-3 {
        stroke-width: 0px;
      }

      .cls-2 {
        fill: #ef4f1d;
      }

      .cls-3 {
        fill: #fff;
      }
    </style>
  </defs>
  <g>
    <polygon class="cls-2" points="18.33 93.95 80.3 93.95 75.36 75.8 23.27 75.8 18.33 93.95"/>
    <polygon class="cls-3" points="13.4 112.09 85.24 112.09 80.3 93.95 18.33 93.95 13.4 112.09"/>
    <polygon class="cls-2" points="89.14 126.46 9.49 126.46 13.4 112.09 85.23 112.09 89.14 126.46"/>
    <polygon class="cls-3" points="23.27 75.8 75.36 75.8 69.48 54.18 29.15 54.18 23.27 75.8"/>
    <polygon class="cls-2" points="34.43 34.79 29.15 54.18 69.48 54.18 64.21 34.79 34.43 34.79"/>
    <path class="cls-2" d="M55.33,2.18c-.3-1.09-1.29-1.85-2.42-1.85h-7.19c-1.13,0-2.12.76-2.42,1.85l-3.19,11.74h18.42l-3.19-11.74Z"/>
    <polygon class="cls-3" points="58.53 13.92 40.11 13.92 34.43 34.79 64.21 34.79 58.53 13.92"/>
  </g>
  <g>
    <rect class="cls-2" x=".61" y="126.46" width="97.43" height="11.68" rx="3.22" ry="3.22"/>
    <path class="cls-1" d="M94.81,126.13h-5.42l-3.73-13.71h0l-4.94-18.14h0l-4.94-18.14h0l-5.88-21.62h0l-5.27-19.39h0l-5.68-20.88h0l-3.31-12.15c-.34-1.23-1.46-2.09-2.74-2.09h-7.19c-1.28,0-2.4.86-2.74,2.09l-3.31,12.15h0l-5.68,20.88h0l-5.27,19.39h0l-5.88,21.62h0l-4.94,18.14h0l-4.76,17.48h0l-3.91,14.37H3.83c-1.96,0-3.55,1.59-3.55,3.55v5.24c0,1.96,1.59,3.55,3.55,3.55h90.98c1.96,0,3.55-1.59,3.55-3.55v-5.24c0-1.96-1.59-3.55-3.55-3.55ZM43.62,2.27c.26-.95,1.12-1.61,2.1-1.61h7.19c.98,0,1.84.66,2.1,1.61l3.08,11.32h-17.55l3.08-11.32ZM40.36,14.25h17.91l5.5,20.22h-28.91l5.5-20.22ZM34.68,35.12h29.27l5.09,18.73H29.59l5.09-18.73ZM29.41,54.51h39.82l5.7,20.96H23.7l5.7-20.96ZM23.52,76.13h51.59l4.76,17.48H18.77l4.76-17.48ZM18.59,94.28h61.46l4.76,17.48H13.83l4.76-17.48ZM13.65,112.42h71.33l3.73,13.71H9.92l3.73-13.71ZM97.7,134.92c0,1.59-1.3,2.89-2.89,2.89H3.83c-1.59,0-2.89-1.3-2.89-2.89v-5.24c0-1.59,1.3-2.89,2.89-2.89h90.98c1.59,0,2.89,1.3,2.89,2.89v5.24Z"/>
  </g>
</svg>