<?xml version="1.0" encoding="UTF-8"?>
<svg id="Layer_1" data-name="Layer 1" xmlns="http://www.w3.org/2000/svg" version="1.1" viewBox="0 0 200 200">
  <defs>
    <style>
      .cls-1 {
        fill: #de5000;
      }

      .cls-1, .cls-2 {
        stroke-width: 0px;
      }

      .cls-2 {
        fill: #fff;
      }
    </style>
  </defs>
  <circle class="cls-1" cx="100" cy="100" r="100"/>
  <g>
    <path id="_패스_92" data-name=" 패스 92" class="cls-2" d="M100,82.4806c-8.4239-.0016-15.254,6.8044-15.2556,15.2016-.0016,8.3971,6.8261,15.2057,15.25,15.2072s15.254-6.8044,15.2556-15.2016v-.0057c-.0109-8.3911-6.8322-15.1907-15.25-15.2016M96.9573,106.4776l-8.3018-8.3963,2.9694-3.0021,5.3268,5.397,11.4431-11.5867,2.9609,3.0049-14.3984,14.5832Z"/>
    <path id="_패스_93" data-name=" 패스 93" class="cls-2" d="M137.1352,52.3247h-6.7959c-1.7414-2.0354-4.2872-3.2119-6.9707-3.2214h-10.755v-3.2073c.0007-7.0387-5.7228-12.7455-12.7839-12.7464s-12.7861,5.7045-12.787,12.7432v3.2106h-10.411c-2.6876.0061-5.2381,1.183-6.9821,3.2214h-6.7847c-5.011-.1053-9.1641,3.8485-9.2888,8.8433v96.8314c.1216,4.9969,4.2755,8.9541,9.2888,8.8489h74.2703c5.0132.1053,9.167-3.852,9.2887-8.8489V61.1679c-.1232-4.9959-4.2767-8.9514-9.2888-8.8461M71.3132,58.3374c.0031-2.9271,2.3819-5.2997,5.3183-5.3043h14.3532v-7.137c0-4.8685,3.9592-8.8151,8.8432-8.8151s8.8432,3.9467,8.8432,8.8151v7.137h14.6972c2.9364.0046,5.3153,2.3772,5.3183,5.3043v6.437h-57.3735v-6.437ZM142.4816,157.9994c-.1205,2.831-2.5175,5.0305-5.3578,4.9164H62.8649c-2.8403.1141-5.2373-2.0853-5.3578-4.9164V61.1679c.122-2.8299,2.5185-5.0277,5.3578-4.9135h4.7628c-.1643.6824-.2504,1.3812-.2566,2.0829v10.3667h65.2579v-10.3667c-.0058-.7019-.0928-1.4009-.2594-2.0829h4.7656c2.8393-.1142,5.2358,2.0836,5.3578,4.9135l-.0113,96.8314h0Z"/>
    <path id="_패스_94" data-name=" 패스 94" class="cls-2" d="M100.0028,39.6476c-3.216-.0016-5.8243,2.596-5.8259,5.8018-.0016,3.2058,2.6043,5.8059,5.8203,5.8074s5.8243-2.596,5.8259-5.8018v-.0028c-.0046-3.2028-2.6073-5.7984-5.8203-5.8046M100.0028,47.3271c-1.0388.0016-1.8821-.8367-1.8837-1.8721s.8393-1.8762,1.878-1.8778c1.0388-.0016,1.8821.8367,1.8837,1.8721v.0056c-.0031,1.0327-.8421,1.869-1.878,1.8721"/>
    <path id="_패스_95" data-name=" 패스 95" class="cls-2" d="M63.1779,72.5467v79.5498c.0109,3.3332,2.7189,6.0328,6.0628,6.0435h61.5215c3.3439-.0108,6.0519-2.7102,6.0628-6.0435v-79.5498H63.1779ZM100.0029,116.5351c-10.4454,0-18.913-8.4408-18.913-18.853s8.4676-18.853,18.913-18.853,18.913,8.4408,18.913,18.853h0c-.0124,10.4071-8.4728,18.8407-18.913,18.853"/>
  </g>
</svg>