<?xml version="1.0" encoding="UTF-8"?>
<svg id="Layer_1" data-name="Layer 1" xmlns="http://www.w3.org/2000/svg" version="1.1" viewBox="0 0 200 200">
  <defs>
    <style>
      .cls-1 {
        fill: #de5000;
      }

      .cls-1, .cls-2 {
        stroke-width: 0px;
      }

      .cls-2 {
        fill: #fff;
      }
    </style>
  </defs>
  <circle class="cls-1" cx="100" cy="100" r="100"/>
  <g>
    <path id="_패스_98" data-name=" 패스 98" class="cls-2" d="M65.8338,64.0152h-13.0088v16.8669h34.5787v-16.8669s-21.5699,0-21.5699,0Z"/>
    <path id="_패스_99" data-name=" 패스 99" class="cls-2" d="M91.1274,80.8822h17.7476v-16.8669h-17.7476v16.8669Z"/>
    <rect id="_사각형_749" data-name=" 사각형 749" class="cls-2" x="56.3009" y="84.6084" width="31.1004" height="68.8566"/>
    <path id="_패스_100" data-name=" 패스 100" class="cls-2" d="M91.1274,60.289h7.2381c-.0481-.1637-.0674-.3563-.1131-.5152l-.0794-.1902c-4.1037-12.3487-22.7822-13.0925-28.6178-13.0444v13.7496h21.5723,0Z"/>
    <rect id="_사각형_750" data-name=" 사각형 750" class="cls-2" x="112.5963" y="84.6084" width="31.1028" height="68.8566"/>
    <path id="_패스_101" data-name=" 패스 101" class="cls-2" d="M147.175,64.0152h-34.5787v16.8669h34.5787s0-16.8669,0-16.8669Z"/>
    <path id="_패스_102" data-name=" 패스 102" class="cls-2" d="M130.4449,60.289v-13.7497c-5.7899-.0746-24.1245.7005-28.4809,12.6544.1035.3563.1925.7222.2766,1.0952h28.2043Z"/>
    <rect id="_사각형_751" data-name=" 사각형 751" class="cls-2" x="91.1274" y="84.6084" width="17.7476" height="68.8566"/>
  </g>
</svg>