<?xml version="1.0" encoding="UTF-8"?>
<svg id="Layer_1" data-name="Layer 1" xmlns="http://www.w3.org/2000/svg" version="1.1" viewBox="0 0 160 133">
  <defs>
    <style>
      .cls-1 {
        fill: #ddd;
        stroke-width: 0px;
      }
    </style>
  </defs>
  <g id="_패스_82" data-name="패스 82">
    <path class="cls-1" d="M157.016,36.2418H2.984c-1.6494,0-2.984-1.3319-2.984-2.978v-17.0565C.0291,7.2937,7.3085.0291,16.2255,0h127.5547c8.9171.0291,16.1906,7.2937,16.2197,16.1986v17.0652c0,1.646-1.3346,2.978-2.984,2.978ZM5.968,30.2858h148.064v-14.0785c-.0175-5.6302-4.6275-10.2339-10.275-10.2514H16.2372c-5.6416.0174-10.2517,4.6211-10.2692,10.2601v14.0698ZM62.1805,26.5459c-2.2497,0-4.3711-.8754-5.9622-2.4632-1.5969-1.5908-2.477-3.7079-2.477-5.9589-.0117-4.6386,3.7708-8.425,8.4275-8.4337h.0058c2.2613,0,4.3769.8754,5.9738,2.4632,1.5969,1.5908,2.477,3.705,2.477,5.9589,0,4.6502-3.7825,8.4337-8.4392,8.4337h-.0058ZM62.1805,15.646h-.0058c-1.358.0029-2.4653,1.1109-2.4653,2.472,0,.666.2564,1.2854.7227,1.7507.4721.4653,1.0899.7212,1.7484.7212h.0058c1.3638,0,2.4711-1.1051,2.4711-2.4661,0-.666-.2564-1.2883-.7285-1.7565-.4663-.4653-1.084-.7212-1.7484-.7212ZM42.9476,26.5459c-4.6509,0-8.4333-3.7748-8.445-8.4163,0-4.6473,3.7825-8.4308,8.4333-8.4396h.0058c2.2613,0,4.3769.8754,5.9738,2.4632,1.5969,1.5908,2.477,3.705,2.477,5.9589,0,4.6356-3.7766,8.4192-8.4158,8.4337h-.0291ZM42.9476,15.646h-.0058c-1.358.0029-2.4711,1.1138-2.4711,2.4778,0,1.3581,1.1132,2.4661,2.477,2.4661h.0233c1.3463-.0029,2.4536-1.1109,2.4536-2.4661,0-.666-.2564-1.2883-.7285-1.7565-.4663-.4653-1.084-.7212-1.7484-.7212ZM23.7147,26.5459c-2.2555,0-4.3711-.8754-5.968-2.4632-1.5969-1.5908-2.477-3.7079-2.477-5.9589-.0058-2.2451.8684-4.3652,2.4653-5.9589,1.5911-1.5908,3.7125-2.472,5.968-2.4749h.0058c4.6567,0,8.4392,3.7748,8.4508,8.4163,0,4.656-3.7825,8.4396-8.4392,8.4396h-.0058ZM23.7147,15.646h-.0058c-.6586,0-1.2822.2588-1.7484.727-.4663.4653-.7227,1.0848-.7227,1.7449,0,.666.2564,1.2854.7227,1.7507.4721.4653,1.0899.7212,1.7543.7212h.0058c1.3638,0,2.4711-1.1051,2.4711-2.4661,0-1.3639-1.1132-2.4778-2.477-2.4778Z"/>
  </g>
  <g id="_사각형_489" data-name="사각형 489">
    <path class="cls-1" d="M157.016,133H2.984c-1.6494,0-2.984-1.3319-2.984-2.978V44.9314c0-1.646,1.3346-2.978,2.984-2.978h154.032c1.6494,0,2.984,1.3319,2.984,2.978v85.0906c0,1.646-1.3346,2.978-2.984,2.978ZM5.968,127.044h148.064V47.9094H5.968v79.1346Z"/>
  </g>
</svg>