<?xml version="1.0" encoding="UTF-8"?>
<svg id="Layer_1" data-name="Layer 1" xmlns="http://www.w3.org/2000/svg" version="1.1" viewBox="0 0 120 120">
  <defs>
    <style>
      .cls-1 {
        fill: #ddd;
        stroke-width: 0px;
      }
    </style>
  </defs>
  <g id="_패스_72-2" data-name=" 패스 72-2">
    <path class="cls-1" d="M60.0023,120C26.918,120,0,93.0843,0,60S26.918,0,60.0023,0c33.0843.0023,59.9977,26.918,59.9977,60s-26.9134,60-59.9977,60ZM60.007,4.7763C29.5534,4.7763,4.7763,29.5487,4.7763,60s24.7724,55.2237,55.226,55.2237,55.2214-24.7724,55.2214-55.2237S90.4513,4.7786,60.007,4.7763Z"/>
  </g>
  <path id="_패스_73-2" data-name=" 패스 73-2" class="cls-1" d="M73.4904,82.4143l-19.9172-21.3644h6.811c7.5615,0,13.6913-6.1298,13.6913-13.6913s-6.1298-13.6913-13.6913-13.6913h-12.1796c-1.2746.0302-2.3006,1.0563-2.3308,2.3308v48.0019c.0026,1.287,1.0439,2.3304,2.3308,2.3356,1.2767.0133,2.3224-1.0109,2.3356-2.2876.0002-.016.0002-.032,0-.048v-19.3584l19.5446,20.9441c.4436.4815,1.0696.7537,1.7242.7499,1.274.0185,2.3217-.9992,2.3402-2.2732.0089-.6153-.2283-1.2087-.659-1.6482M50.5402,38.329h9.844c4.9856-.0017,9.0286,4.0385,9.0303,9.0241s-4.0385,9.0286-9.0241,9.0303h-9.855s.0048-18.0544.0048-18.0544Z"/>
</svg>