<?xml version="1.0" encoding="UTF-8"?>
<svg id="Layer_1" data-name="Layer 1" xmlns="http://www.w3.org/2000/svg" version="1.1" viewBox="0 0 200 140">
  <defs>
    <style>
      .cls-1 {
        fill: #ddd;
        stroke-width: 0px;
      }
    </style>
  </defs>
  <path id="_패스_80" data-name="패스 80" class="cls-1" d="M82.3487,83.9759c7.9303-6.8756,12.4693-16.8429,12.438-27.3132.0025-20.158-16.4068-36.5013-36.6512-36.5037-20.2444-.0025-36.6577,16.3368-36.6602,36.4948v.009c-.0261,10.4646,4.5027,20.4272,12.4163,27.3132C13.2382,93.3088-.0186,113.8136,0,136.3976c0,1.9895,1.6198,3.6024,3.6178,3.6024h109.0409c1.9981,0,3.6178-1.6128,3.6178-3.6024.0048-22.5903-13.2652-43.0938-33.9279-52.4218M28.7182,56.6626c-.0045-16.1789,13.1636-29.2982,29.4119-29.3027,16.2482-.0045,29.4237,13.1075,29.4282,29.2864.0029,10.2958-5.4225,19.8373-14.2904,25.132-8.147,4.7489-18.0613,5.4105-26.7718,1.7868-1.2219-.5105-2.4066-1.1051-3.5455-1.7796-8.8718-5.2793-14.2835-14.8319-14.2325-25.123M7.3659,132.7952c1.3966-19.9436,14.4923-37.183,33.3852-43.949.5137.2666,1.0636.4683,1.5846.7205.6729.317,1.3386.6412,2.026.915s1.2807.4539,1.9247.67c.9334.317,1.8523.6268,2.8074.8646.1664.0432.3401.0648.5065.1081,5.5841,1.412,11.4341,1.412,17.0182,0,.1737-.036.3545-.0648.5282-.1081.9406-.2378,1.8523-.5476,2.7712-.8574.6657-.2161,1.3241-.4251,1.9753-.6845s1.3096-.5836,1.9681-.8862c.5354-.2594,1.0926-.4611,1.6208-.7205,18.9099,6.7522,32.0248,23.9946,33.4286,43.949l-101.5448-.0216Z"/>
  <path id="_패스_81" data-name="패스 81" class="cls-1" d="M166.0794,63.817c7.9275-6.8784,12.4679-16.8432,12.4453-27.3132C178.5271,16.3458,162.1178.0025,141.8734,0c-20.2444-.0025-36.6577,16.3368-36.6602,36.4948v.009c-.026,10.4625,4.5031,20.4228,12.4163,27.306-9.1683,4.2024-17.075,10.7168-22.9369,18.8981,1.9787,1.3048,3.8822,2.7192,5.7017,4.2364,5.9471-8.4087,14.3457-14.7946,24.0585-18.2929.5354.281,1.0998.4899,1.6497.7205s1.2879.6124,1.9464.879,1.2879.4539,1.9319.67c.9406.317,1.874.634,2.8364.8718.1302.036.2605.0504.3907.0792,5.6117,1.4267,11.4934,1.4267,17.105,0l.5427-.1081c.9189-.2305,1.8234-.5404,2.7278-.843.6801-.2233,1.3531-.4395,2.0187-.7205s1.3024-.5764,1.9464-.879,1.0998-.4539,1.6353-.7205c18.9213,6.7575,32.0387,24.0172,33.4286,43.985h-73.6804c.9282,2.3539,1.7182,4.7595,2.366,7.2048h75.0841c1.9981,0,3.6178-1.6128,3.6178-3.6024.0116-22.5902-13.2571-43.096-33.9206-52.4218M157.0131,61.6195c-6.9511,4.025-15.2271,5.1245-22.9948,3.0548-2.5705-.6774-5.0347-1.7054-7.3224-3.0548-13.9394-8.3362-18.4528-26.3459-10.0809-40.2258,8.3719-13.8799,26.4588-18.374,40.3981-10.0379,13.9394,8.3362,18.4528,26.3459,10.0809,40.2258-2.4837,4.1178-5.9455,7.5648-10.0809,10.0379"/>
</svg>