<?xml version="1.0" encoding="UTF-8"?>
<svg id="Layer_1" data-name="Layer 1" xmlns="http://www.w3.org/2000/svg" version="1.1" viewBox="0 0 83.6617 99.9938">
  <defs>
    <style>
      .cls-1 {
        fill: #999;
        stroke-width: 0px;
      }
    </style>
  </defs>
  <g id="_그룹_2089" data-name=" 그룹 2089">
    <g id="_구성_요소_92_75" data-name=" 구성 요소 92 75">
      <path id="_패스_108" data-name=" 패스 108" class="cls-1" d="M50.05,50.0469L5.95,1.1469C4.85-.1531,2.75-.3531,1.45.8469c-.1.1-.2.2-.4.4-1.3,1.5-1.3,3.8,0,5.4l39.2,43.4L1.05,93.4469c-1.4,1.6-1.4,3.9,0,5.4,1.2,1.4,3.2,1.5,4.6.4.1-.1.2-.2.4-.4l44.1-48.9"/>
    </g>
  </g>
  <g id="_그룹_2089-2" data-name=" 그룹 2089-2">
    <g id="_구성_요소_92_75-2" data-name=" 구성 요소 92 75-2">
      <path id="_패스_108-2" data-name=" 패스 108-2" class="cls-1" d="M83.6617,50.0469L39.5617,1.1469c-1.2-1.4-3.2-1.5-4.6-.4-.1.1-.2.2-.4.4-1.4,1.6-1.4,3.9,0,5.4l39.2,43.4-39.2,43.4c-1.4,1.6-1.4,3.9,0,5.4,1.2,1.4,3.2,1.5,4.6.4.1-.1.2-.2.4-.4l44.1-48.9"/>
    </g>
  </g>
</svg>