<?xml version="1.0" encoding="UTF-8"?>
<svg id="Layer_1" data-name="Layer 1" xmlns="http://www.w3.org/2000/svg" version="1.1" viewBox="0 0 14.17 14.17">
  <defs>
    <style>
      .cls-1 {
        fill: #666;
        stroke-width: 0px;
      }
    </style>
  </defs>
  <g id="_그룹_967" data-name="그룹 967">
    <path id="_패스_69" data-name="패스 69" class="cls-1" d="M12.92,14.17l-3.7-3.7c-.46.37-.99.65-1.54.85-.6.21-1.23.32-1.86.31-1.55.03-3.04-.58-4.13-1.69C.58,8.87-.03,7.37,0,5.82c-.03-1.55.58-3.04,1.69-4.13C2.77.58,4.27-.03,5.82,0c1.55-.03,3.04.58,4.13,1.69,1.11,1.08,1.72,2.58,1.69,4.13,0,.63-.1,1.26-.31,1.86-.2.56-.48,1.08-.85,1.54l3.7,3.7-1.25,1.26ZM5.82,9.85c1.07.02,2.11-.41,2.85-1.17.77-.75,1.19-1.78,1.17-2.85.02-1.07-.41-2.11-1.17-2.85-.75-.77-1.78-1.2-2.85-1.18-1.07-.02-2.11.41-2.85,1.18-.77.75-1.19,1.78-1.17,2.85-.02,1.07.41,2.11,1.17,2.85.75.77,1.78,1.19,2.85,1.17"/>
  </g>
</svg>
